<svg width="23" height="22" viewBox="0 0 23 22" fill="none" xmlns="http://www.w3.org/2000/svg">
<path d="M7.29662 2.05413C5.03578 3.18179 3.16345 4.13633 3.13536 4.17377C3.1026 4.20652 2.49877 5.74594 1.79196 7.58951L0.500055 10.9444V11.9785C0.500055 13.5133 0.471971 13.4758 1.67962 13.4758H2.51281V17.5233C2.51281 22.0152 2.49877 21.7906 2.81707 21.9263C3.05579 22.0246 19.9442 22.0246 20.1829 21.9263C20.5012 21.7906 20.4872 22.0152 20.4872 17.5233V13.4758H21.3204C22.528 13.4758 22.4999 13.5133 22.4999 11.9785V10.9444L21.208 7.58951C20.5012 5.74594 19.8974 4.20652 19.8646 4.17377C19.7897 4.08018 11.6077 0 11.5 0C11.4485 0 9.55746 0.921783 7.29662 2.05413ZM15.3149 2.98527L19.1063 4.88967L20.2859 7.95448L21.4655 11.0193V11.7539L21.4702 12.4932H20.9787H20.4872V11.6978V10.9023L19.4527 8.31946C18.8863 6.89701 18.3855 5.69915 18.3434 5.65704C18.2778 5.59154 12.6094 2.52204 11.8323 2.12899C11.6779 2.05413 11.5281 2.01202 11.4532 2.02137C11.3174 2.04009 4.70812 5.58218 4.62855 5.67576C4.60046 5.70851 4.11365 6.89701 3.54727 8.31946L2.51281 10.9023V11.6978V12.4932H2.02132H1.52984L1.53452 11.7539V11.0193L2.71409 7.95448L3.89366 4.88967L7.68513 2.98527C9.77277 1.93715 11.486 1.08087 11.5 1.08087C11.514 1.08087 13.2272 1.93715 15.3149 2.98527ZM14.5753 4.73058C16.1996 5.60557 17.5523 6.34955 17.5757 6.37762C17.6038 6.41038 18.0485 7.49125 18.5634 8.78737L19.5042 11.1363V16.0493V20.9624H18.2404H16.9766V17.1723C16.9766 13.05 16.9859 13.1857 16.7191 13.0641C16.5413 12.9845 6.45875 12.9845 6.28088 13.0641C6.01407 13.1857 6.02343 13.05 6.02343 17.1723V20.9624H4.75961H3.49578V16.0493V11.1363L4.43663 8.78737C4.95152 7.49125 5.40088 6.4057 5.43365 6.37295C5.55535 6.24661 11.4766 3.08821 11.5468 3.11629C11.5843 3.13032 12.9464 3.85559 14.5753 4.73058ZM13.2834 15.4177L11.5 16.8448L9.7166 15.4177L7.93321 13.9905H11.5H15.0668L13.2834 15.4177ZM8.87874 16.0166C9.84299 16.7886 10.6481 17.4344 10.6715 17.4484C10.6996 17.4765 7.16555 20.3448 7.04385 20.3916C7.02513 20.4009 7.00641 19.0908 7.00641 17.4765C7.00641 15.1463 7.02045 14.552 7.06726 14.5801C7.09534 14.6035 7.91449 15.2492 8.87874 16.0166ZM15.9749 20.3869C15.9655 20.4009 15.1323 19.7505 14.1259 18.9457L12.3004 17.4858L14.1353 16.0213L15.9702 14.552L15.9842 17.4624C15.9889 19.058 15.9842 20.3775 15.9749 20.3869ZM13.2881 19.5446L15.0247 20.939L13.2647 20.953C12.2911 20.9577 10.7089 20.9577 9.74001 20.953L7.9847 20.939L9.72597 19.5446C10.6809 18.7819 11.486 18.1549 11.5047 18.1549C11.5281 18.1549 12.3285 18.7819 13.2881 19.5446Z" fill="#6B6B6B"/>
<path d="M10.0678 5.78331C9.34699 6.20911 8.70103 6.62087 8.63082 6.70042L8.49976 6.83611L8.5138 8.0246L8.52784 9.21778L8.6589 9.34411L8.78529 9.47513H11.5002H14.215L14.3414 9.34411L14.4725 9.21778V8.00589C14.4725 6.86419 14.4678 6.78932 14.3789 6.69106C14.2993 6.60216 12.1368 5.27797 11.7483 5.08144C11.664 5.03933 11.547 5.00658 11.4861 5.00658C11.4206 5.00658 10.7934 5.35283 10.0678 5.78331ZM12.4925 6.6817L13.4895 7.28063V7.88891V8.49252H11.5002H9.51081V7.88891V7.28063L10.4938 6.68638C11.0368 6.35884 11.4814 6.08745 11.4861 6.08745C11.4908 6.08277 11.9448 6.35416 12.4925 6.6817Z" fill="#000000"/>
</svg>
