<svg width="22" height="22" viewBox="0 0 22 22" fill="none" xmlns="http://www.w3.org/2000/svg">
<path d="M9.14903 0.029881C8.33887 0.121623 7.55018 0.474106 6.94927 1.0149C6.31617 1.58467 5.96206 2.23652 5.84403 3.04289L5.79037 3.43883L5.3236 3.56437C4.23445 3.86374 3.37601 4.28382 2.8985 4.74736C2.46391 5.16744 2.31368 5.57304 2.42099 6.03175C2.55512 6.63049 3.06482 7.10369 4.00374 7.51411C4.45979 7.71208 5.49528 8.04525 5.82256 8.1032C5.89768 8.11285 5.95133 8.21908 6.05327 8.52328C7.11559 11.8405 11.6707 12.9848 14.5036 10.6575C15.1581 10.1215 15.7161 9.30067 15.9522 8.53776L16.0756 8.14665L16.4511 8.04525C18.0661 7.62034 19.123 7.01195 19.4772 6.30215C19.622 6.0221 19.6274 5.53441 19.4879 5.26884C19.1499 4.61216 18.1841 4.0086 16.7999 3.603L16.1829 3.41951L16.1507 3.08634C16.1024 2.63729 16.0219 2.39104 15.7805 1.93715C15.2976 1.03905 14.4177 0.382364 13.3232 0.116795C12.953 0.0250525 12.7384 0.0153954 11.22 0.000909789C10.2918 -0.00391875 9.35827 0.0105669 9.14903 0.029881ZM13.0496 1.16942C13.9026 1.39636 14.5357 1.93232 14.8147 2.66143C14.8738 2.81595 14.922 2.9946 14.922 3.0622C14.922 3.16843 14.906 3.17809 14.7504 3.14912C13.8758 3.00909 12.0946 2.87872 11.0054 2.87872C9.91626 2.87872 8.13499 3.00909 7.26582 3.14912C7.10486 3.17809 7.08877 3.16843 7.08877 3.0622C7.08877 2.9946 7.13705 2.81595 7.19607 2.66143C7.4697 1.94198 8.07061 1.43016 8.91295 1.1839C9.33681 1.05836 12.5989 1.0487 13.0496 1.16942ZM13.7417 4.10517C15.6034 4.33211 17.036 4.71356 17.8729 5.20124C18.1895 5.38473 18.4095 5.62616 18.4095 5.79033C18.4095 5.94484 17.9856 6.29249 17.5457 6.50012C17.1969 6.66429 16.2956 6.98297 16.1829 6.98297C16.1668 6.98297 16.1561 6.67878 16.1561 6.31181C16.1561 5.65996 16.1507 5.63581 16.0166 5.49096C15.7644 5.21573 15.2815 5.24953 15.0776 5.55373C14.9864 5.68893 14.9757 5.80964 14.9757 6.63532C14.9757 7.95351 14.8362 8.47982 14.2997 9.21376C12.953 11.0389 10.0879 11.3383 8.31741 9.84147C7.88282 9.4745 7.50189 8.98199 7.30874 8.54742C7.0995 8.05974 7.03511 7.61551 7.03511 6.63532C7.03511 5.80964 7.02438 5.68893 6.93317 5.55373C6.72929 5.24953 6.24642 5.21573 5.99425 5.49096C5.86012 5.63581 5.85476 5.65996 5.85476 6.31664V6.99263L5.70989 6.95883C5.4148 6.89606 4.58855 6.58221 4.29347 6.42286C3.95009 6.23938 3.60135 5.91587 3.60135 5.7855C3.60135 5.13847 5.97816 4.31762 8.51056 4.09068C8.83784 4.06171 9.17585 4.02791 9.2617 4.01825C9.69628 3.96514 13.1569 4.03274 13.7417 4.10517Z" fill="#6B6B6B"/>
<path d="M9.63735 12.9994C7.24981 13.1201 4.39549 13.545 3.32244 13.9361C1.64311 14.5493 0.430562 15.8917 0.0925507 17.5092C-0.0308502 18.0935 -0.0308502 21.5024 0.0925507 21.7149C0.264239 22.0191 -0.454706 21.9998 11.0055 21.9998C22.4871 21.9998 21.7467 22.0191 21.9238 21.71C21.9989 21.5748 22.0096 21.3334 21.9935 19.571C21.9721 17.374 21.9614 17.3161 21.5751 16.4807C21.0063 15.2495 19.7133 14.192 18.2861 13.7961C17.4009 13.5498 15.3245 13.2311 13.7149 13.0911C12.878 13.0187 10.3885 12.9607 9.63735 12.9994ZM13.9832 14.2017C14.8202 14.2838 16.6336 14.5445 16.6819 14.5879C16.698 14.6024 16.58 15.2157 16.419 15.9496L16.1239 17.2919H11.0055H5.88167L5.59194 15.9496C5.43098 15.2157 5.31295 14.6024 5.32368 14.5879C5.41489 14.5059 7.6683 14.2306 9.1813 14.1099C9.82513 14.0616 13.2213 14.1244 13.9832 14.2017ZM4.15942 14.9356C4.17551 14.9839 4.32038 15.6599 4.4867 16.4373L4.78715 17.8569L4.4867 19.262C4.32574 20.0394 4.18088 20.7202 4.16478 20.7781L4.13796 20.8892H2.65714H1.17633L1.20316 19.3537C1.22462 17.6203 1.24608 17.5044 1.64311 16.7608C2.05624 15.9979 2.72689 15.3991 3.60143 15.0273C4.05748 14.8294 4.12186 14.8197 4.15942 14.9356ZM18.4417 15.0418C18.9407 15.2639 19.1285 15.3847 19.5523 15.7613C20.0996 16.2441 20.4591 16.8091 20.6683 17.5092C20.7595 17.8182 20.781 18.0886 20.8078 19.3779L20.84 20.8892H19.3592H17.873L17.8462 20.7781C17.8355 20.7202 17.6852 20.0394 17.5243 19.2668L17.2238 17.8617L17.5243 16.4421C17.873 14.8101 17.8569 14.8535 17.9481 14.8535C17.9803 14.8535 18.2057 14.9404 18.4417 15.0418ZM16.4029 19.6434L16.6766 20.8892H11.0055H5.33441L5.59731 19.6917C5.74217 19.035 5.87094 18.4701 5.88167 18.4363C5.90313 18.388 6.95472 18.3784 11.0162 18.388L16.1239 18.4025L16.4029 19.6434Z" fill="#6B6B6B"/>
</svg>
