<svg width="23" height="22" viewBox="0 0 23 22" fill="none" xmlns="http://www.w3.org/2000/svg">
<path d="M15.7061 0.188725C15.2751 0.463724 14.7476 0.943626 14.464 1.32647C14.1521 1.74167 13.8061 2.44265 13.67 2.93872C13.5339 3.42402 13.5282 4.675 13.6643 5.12255C13.7097 5.28431 13.7437 5.42451 13.7381 5.4299C13.7324 5.43529 13.5736 5.38137 13.3808 5.31127C12.7739 5.07941 12.3088 4.99314 11.5772 4.99314C10.8285 4.99314 10.301 5.07941 10.1706 5.21961C9.90969 5.50539 9.8473 6.86961 10.0685 7.65686C10.63 9.67892 12.496 11.0971 14.6342 11.1294C14.9518 11.1294 15.3432 11.1132 15.5076 11.0917L15.8026 11.0485L15.7912 15.1574L15.7742 19.2662L15.4679 19.3417C14.5831 19.5574 13.8628 20.2152 13.6133 21.051L13.5055 21.4069H12.2748C11.0837 21.4069 11.0383 21.4015 11.0383 21.299C11.0383 21.0725 10.7945 20.5926 10.5449 20.3284C10.2443 20.0103 9.93237 19.8216 9.55237 19.7299L9.28013 19.6706V17.7672V15.8691L9.83595 15.8907C10.9419 15.9392 11.8607 15.6103 12.6264 14.8877C13.3978 14.1652 13.7324 13.3941 13.7324 12.375C13.7267 11.6471 13.6473 11.3559 13.4318 11.2804C13.1539 11.1779 12.944 11.151 12.4222 11.1564C11.3843 11.1564 10.596 11.4691 9.8473 12.1863C9.5467 12.4667 9.29147 12.7686 9.18371 12.9627L9.01356 13.2809L8.82072 12.9358C8.5258 12.4074 7.8849 11.825 7.29504 11.55C7.02848 11.426 6.65982 11.2858 6.47265 11.2426C5.86011 11.0917 4.62936 11.1564 4.46488 11.3451C4.37413 11.4529 4.28906 11.9652 4.28906 12.3966C4.28906 13.2863 4.6407 14.1113 5.30429 14.7853C5.63324 15.1196 5.75235 15.2059 5.87712 15.2059C6.0416 15.2059 6.21743 15.0441 6.21743 14.8985C6.21743 14.8608 6.05295 14.6667 5.85444 14.4725C5.21354 13.8417 4.87891 13.0544 4.92428 12.251C4.93563 11.9814 4.96966 11.8412 5.02637 11.8088C5.15682 11.7279 5.99056 11.7441 6.34787 11.8358C7.42549 12.1 8.32162 12.9627 8.57117 13.9711C8.61654 14.1598 8.65625 14.4348 8.65625 14.5858V14.8554L7.70908 13.9603C7.18161 13.4642 6.70519 13.049 6.64847 13.0275C6.48399 12.9735 6.27414 13.1299 6.27414 13.3078C6.27414 13.4211 6.46698 13.6368 7.24967 14.3809L8.23087 15.3137H7.99266C7.85654 15.3137 7.5446 15.276 7.29504 15.2275C6.864 15.1412 6.82997 15.1412 6.72788 15.2328C6.58608 15.3515 6.58041 15.5402 6.71653 15.6534C6.89235 15.8044 7.55594 15.9176 8.13445 15.8961L8.65625 15.8745V17.8049C8.65625 19.6059 8.65057 19.7353 8.55983 19.7353C8.36699 19.7353 7.89057 19.9887 7.64669 20.2152C7.37445 20.4632 7.06818 21.024 7.06818 21.2613V21.4123L6.43862 21.3961L5.80339 21.3799L5.73533 21.1534C5.59921 20.7113 5.19085 20.3123 4.70876 20.1343L4.46488 20.048L4.44786 18.3118C4.42518 16.6887 4.4195 16.5593 4.3004 16.2627C3.83532 15.0765 2.83711 14.3917 1.55531 14.3863C0.999485 14.3863 0.687543 14.4618 0.596796 14.6289C0.494706 14.8015 0.466348 15.6373 0.545751 15.9662C0.857693 17.2387 2.00337 18.1176 3.3589 18.1176H3.83532V19.0775V20.0319L3.56308 20.1289C3.40995 20.1775 3.16606 20.323 3.01293 20.4471C2.75203 20.6681 2.47412 21.1103 2.47412 21.3098C2.47412 21.3961 2.40606 21.4069 1.85024 21.4069C1.30008 21.4069 1.21501 21.4176 1.11292 21.5147C0.976798 21.6441 0.965455 21.8005 1.09023 21.9137C1.16964 21.9892 2.12248 22 10.7548 22H20.3399L20.425 21.8706C20.5271 21.725 20.4647 21.4985 20.3115 21.4392C20.2605 21.423 19.8635 21.4069 19.4324 21.4069H18.6554L18.6157 21.202C18.559 20.8407 18.2073 20.2583 17.8727 19.9564C17.5438 19.6598 16.9936 19.3794 16.642 19.3255L16.4264 19.2877V15.1681V11.0485L16.642 11.0917C17.0333 11.1672 18.0202 11.1348 18.4853 11.0324C19.9032 10.725 21.0205 9.92696 21.6954 8.7299C21.9677 8.25 22.0754 7.975 22.1889 7.46814C22.342 6.78333 22.2739 5.5647 22.0698 5.25196C21.9563 5.0848 21.4005 4.98775 20.6235 4.99314C19.9259 4.99853 19.4381 5.0848 18.8482 5.31127C18.6554 5.38137 18.4966 5.43529 18.4909 5.4299C18.4853 5.42451 18.5193 5.28431 18.5703 5.12255C18.6894 4.72353 18.6951 3.3 18.576 2.99804C18.4853 2.75539 18.3208 2.67451 18.1223 2.77157C18.0032 2.82549 17.9862 2.86863 17.9975 3.10049C18.0542 4.2652 18.0372 4.66961 17.9124 5.0848C17.7366 5.67255 17.5438 6.01765 17.1921 6.36274C17.0276 6.52451 16.7838 6.8049 16.659 6.97745L16.4264 7.29559V6.06078V4.82598L16.9936 4.28676C17.5721 3.74216 17.6629 3.56961 17.4927 3.40784C17.3396 3.26225 17.107 3.33774 16.7611 3.65049L16.4264 3.95245V3.30539C16.4264 2.75 16.4094 2.64755 16.3243 2.57206C16.1939 2.45882 16.0918 2.45882 15.9273 2.56667C15.8026 2.64755 15.8026 2.67451 15.8026 3.76373V4.87451L15.4452 4.5402C15.1673 4.27598 15.0539 4.20588 14.9178 4.20588C14.7079 4.20588 14.6115 4.29216 14.6115 4.4701C14.6115 4.57255 14.7646 4.75588 15.207 5.17647L15.8082 5.74804L15.7912 6.51912L15.7742 7.29559L15.5814 7.0098C15.4736 6.85343 15.2411 6.57304 15.0539 6.38971C14.4754 5.79657 14.1975 5.04706 14.1918 4.04412C14.1918 3.29461 14.2825 2.91716 14.6342 2.23775C14.9064 1.7147 15.3034 1.25637 15.7969 0.884314L16.1032 0.652451L16.3357 0.808823C16.6249 0.992157 17.1467 1.5152 17.3623 1.81716C17.4927 2.01127 17.5494 2.04902 17.6969 2.04902C18.0882 2.04902 18.1166 1.7902 17.765 1.32647C17.3226 0.744118 16.3981 0 16.1202 0C16.0521 0 15.8706 0.0862732 15.7061 0.188725ZM12.513 5.68872C13.9706 6.02304 15.1106 7.02059 15.553 8.33088C15.7118 8.80539 15.8082 9.4902 15.7572 9.82451L15.7288 10.0402L15.2014 9.53872L14.6682 9.03186V8.25539C14.6682 7.41422 14.6228 7.27941 14.3506 7.27941C14.1011 7.27941 14.0443 7.40882 14.0443 7.94265V8.43333L13.2333 7.66765C12.5527 7.02598 12.3939 6.90196 12.2521 6.90196C12.0422 6.90196 11.9458 6.98823 11.9458 7.17157C11.9458 7.27402 12.0649 7.425 12.3996 7.73774C12.6491 7.975 12.8533 8.18529 12.8533 8.20686C12.8533 8.23382 12.6434 8.25 12.3882 8.25C12.0366 8.25 11.9004 8.27157 11.821 8.34167C11.6849 8.4549 11.6906 8.60049 11.8324 8.73529C11.9345 8.83235 12.0195 8.84314 12.7569 8.84314H13.5622L14.4414 9.68431L15.3205 10.5255L14.6115 10.5039C14.033 10.4824 13.8175 10.45 13.4488 10.3314C12.8136 10.1265 12.2748 9.80833 11.804 9.35539C11.0951 8.68676 10.6697 7.82402 10.596 6.90735C10.5619 6.48137 10.596 5.73726 10.6583 5.68333C10.6754 5.66716 10.8455 5.6348 11.044 5.61324C11.4751 5.55931 12.0819 5.59167 12.513 5.68872ZM21.4005 5.64559C21.5763 5.67255 21.582 5.68333 21.6217 6.02843C21.7805 7.45196 21.1623 8.88088 20.045 9.67892C19.2453 10.2505 18.4342 10.5147 17.4814 10.5147H16.9085L17.7876 9.67892L18.6668 8.84314H19.4438C19.8691 8.84314 20.2605 8.82696 20.3115 8.81078C20.4647 8.75147 20.5271 8.525 20.425 8.37941C20.3456 8.26078 20.3002 8.25 19.8578 8.25C19.5912 8.25 19.3757 8.23382 19.3757 8.20686C19.3757 8.18529 19.5799 7.975 19.8294 7.73774C20.1641 7.425 20.2832 7.27402 20.2832 7.17157C20.2832 6.98823 20.1868 6.90196 19.9769 6.90196C19.8294 6.90196 19.6763 7.02059 18.9957 7.66765L18.1847 8.43873V7.95882C18.1847 7.43039 18.1109 7.27941 17.867 7.27941C17.5948 7.27941 17.5608 7.38725 17.5608 8.23921V9.03186L17.022 9.54412C16.4038 10.1319 16.3924 10.1265 16.4435 9.39314C16.4945 8.75686 16.6079 8.36863 16.9199 7.76471C17.1411 7.33333 17.2602 7.17696 17.6969 6.76176C18.1053 6.37353 18.3094 6.22794 18.6894 6.05C19.6082 5.61324 20.4363 5.48922 21.4005 5.64559ZM13.0234 11.8088C13.0915 11.8466 13.1085 11.9706 13.1028 12.3858C13.0972 12.9843 12.944 13.4966 12.6264 13.9657C12.3996 14.3054 11.8834 14.7583 11.5091 14.9525C11.1575 15.1304 10.4372 15.3137 10.0798 15.3137H9.82461L10.8001 14.3809C11.407 13.7985 11.7757 13.4049 11.7757 13.3402C11.7757 13.1676 11.6395 13.0328 11.4694 13.0328C11.3389 13.0328 11.1291 13.2054 10.3521 13.9441L9.39356 14.8554V14.5319C9.39356 13.8093 9.68849 13.1892 10.2954 12.6176C10.7434 12.1917 11.1234 11.9814 11.6736 11.8412C12.0139 11.7495 12.893 11.7333 13.0234 11.8088ZM2.25293 15.098C3.0583 15.3407 3.67084 16.0255 3.76159 16.7858L3.79562 17.0662L3.11502 16.4299C2.67263 16.0201 2.39472 15.799 2.31531 15.799C2.16785 15.799 1.96367 15.977 1.96367 16.1064C1.96367 16.1549 2.27561 16.4946 2.65561 16.8613C3.40995 17.5838 3.41562 17.627 2.75203 17.4382C2.10546 17.2549 1.62904 16.8613 1.33411 16.2627C1.16396 15.9176 1.06755 15.3784 1.13561 15.1304C1.16964 14.9956 1.19232 14.9902 1.53262 14.9902C1.7368 14.9902 2.05442 15.0387 2.25293 15.098ZM16.5058 19.924C17.1467 20.0211 17.8217 20.6358 17.9805 21.2559L18.0145 21.4069H16.0918H14.1691L14.2258 21.202C14.3506 20.749 14.7533 20.2907 15.2297 20.0588C15.4679 19.9456 15.9727 19.8485 16.1712 19.8755C16.2336 19.8809 16.3867 19.9078 16.5058 19.924ZM9.46162 20.3392C9.86431 20.4525 10.4088 21.024 10.4145 21.3368C10.4145 21.3907 10.1025 21.4069 9.05326 21.4069C7.96997 21.4069 7.69206 21.3907 7.69206 21.3368C7.69206 21.299 7.75445 21.1426 7.83385 20.9917C8.13445 20.4201 8.80371 20.1505 9.46162 20.3392ZM4.61234 20.7652C4.77682 20.8407 4.90727 20.9539 4.99802 21.1049C5.07742 21.2343 5.13981 21.3529 5.13981 21.3691C5.13981 21.3907 4.6804 21.4069 4.11891 21.4069H3.098L3.16039 21.2559C3.37024 20.7328 4.04517 20.5064 4.61234 20.7652Z" fill="#6B6B6B"/>
<path d="M21.3721 21.4931C21.236 21.5794 21.2133 21.7304 21.3041 21.8975C21.3551 21.9892 21.4289 22 21.8712 22C22.3136 22 22.3874 21.9892 22.4384 21.8975C22.6142 21.5794 22.4101 21.4069 21.8712 21.4069C21.6274 21.4069 21.4572 21.4338 21.3721 21.4931Z" fill="#6B6B6B"/>
</svg>
